<svg width="2249" height="505" viewBox="0 0 2249 505" fill="none" xmlns="http://www.w3.org/2000/svg">
<path d="M128.983 225.146V191.45H152.758L140.503 151.629H65.6253L53.3704 191.45H78.493V225.146H0V191.45H15.8395L77.3288 6.7085H131.741L191.943 191.604H207.262V225.299L128.983 225.146ZM75.1536 120.997H130.577L102.666 31.7655L75.1536 120.997Z" fill="white"/>
<path d="M329.934 228.117C318.707 228.174 307.578 226.019 297.183 221.776C287.147 217.596 278.114 211.331 270.682 203.397C262.821 194.87 256.72 184.877 252.728 173.99C248.12 161.353 245.847 147.985 246.018 134.536V40.373H225.614V6.67773H308.886V40.373H288.175V137.66C288.005 145.39 289.039 153.1 291.239 160.512C293.061 166.408 296.133 171.841 300.247 176.441C304.031 180.573 308.762 183.727 314.033 185.63C319.453 187.547 325.166 188.5 330.915 188.448C336.691 188.512 342.443 187.707 347.98 186.059C353.297 184.437 358.101 181.46 361.92 177.421C366.041 172.861 369.05 167.409 370.713 161.492C372.873 153.737 373.905 145.71 373.776 137.66V40.373H349.787V6.67773H433.06V40.373H415.045V131.718C415.269 145.703 413.028 159.618 408.427 172.826C404.466 183.966 398.321 194.203 390.351 202.937C382.823 211.001 373.65 217.353 363.452 221.562C352.828 225.959 341.432 228.188 329.934 228.117Z" fill="white"/>
<path d="M541.669 229.741C533.711 229.79 525.776 228.854 518.048 226.953C510.998 225.226 504.223 222.525 497.919 218.927C492.051 215.554 486.714 211.332 482.08 206.399C477.647 201.655 474.099 196.157 471.602 190.164L470.682 187.928H456.497V150.373H503.127V155.979C503.084 160.63 503.894 165.25 505.517 169.61C507.112 173.825 509.623 177.634 512.87 180.76C516.388 184.036 520.567 186.522 525.125 188.05C530.46 189.807 536.053 190.656 541.669 190.562C551.473 190.562 559.133 188.173 564.464 183.486C567.217 180.971 569.384 177.881 570.808 174.434C572.232 170.988 572.88 167.27 572.705 163.545C572.817 159.519 571.752 155.549 569.641 152.119C567.728 149.169 565.237 146.637 562.319 144.675C559.374 142.732 556.219 141.129 552.913 139.897C549.696 138.702 546.51 137.599 543.385 136.588L509.286 125.592C503.005 123.648 496.978 120.964 491.332 117.597C485.676 114.208 480.597 109.937 476.289 104.946C471.821 99.6773 468.315 93.6632 465.934 87.1789C463.239 79.6976 461.931 71.7878 462.073 63.8373C461.907 54.5067 463.822 45.2562 467.68 36.7586C471.316 29.009 476.67 22.1894 483.336 16.8171C490.545 11.1612 498.771 6.93943 507.57 4.3805C517.723 1.38454 528.265 -0.091595 538.851 0.000118637C547.119 -0.0537663 555.36 0.976071 563.361 3.06332C570.422 4.9317 577.216 7.69029 583.581 11.2727C589.103 14.3947 594.14 18.3058 598.532 22.8823C602.285 26.8418 605.387 31.3701 607.724 36.2991L608.704 38.4127H622.276V76.1208H575.983V66.1347C575.39 62.1389 573.971 58.3103 571.817 54.8928C569.55 51.3948 566.638 48.3595 563.238 45.9482C559.815 43.4438 556.021 41.4903 551.994 40.1587C547.758 38.7357 543.319 38.0115 538.851 38.0145C535.003 37.9987 531.166 38.4409 527.423 39.3317C523.985 40.1234 520.717 41.5239 517.772 43.467C514.881 45.3956 512.496 47.9904 510.817 51.0331C509.001 54.4085 508.093 58.198 508.183 62.03C507.941 66.558 509.154 71.0445 511.645 74.8342C513.944 77.9147 516.881 80.4639 520.254 82.3084C523.681 84.2121 527.335 85.6737 531.13 86.6582C534.715 87.6384 538.238 88.7105 541.608 89.8746L582.601 103.567C587.917 105.459 592.956 108.055 597.583 111.286C602.236 114.539 606.325 118.534 609.684 123.11C613.202 128.019 615.911 133.459 617.711 139.223C619.802 145.893 620.836 152.849 620.775 159.838C620.892 169.622 618.939 179.319 615.046 188.295C611.34 196.671 605.887 204.159 599.053 210.259C591.786 216.612 583.345 221.482 574.206 224.594C563.733 228.149 552.729 229.889 541.669 229.741Z" fill="white"/>
<path d="M691.364 499.057V465.515H714.74V38.9028H680.089V68.0645H638.821V6.7085H836.861V68.0645H795.286V38.9028H756.928V465.515H780.733V499.057H691.364Z" fill="white"/>
<path d="M865.568 225.146V191.604H888.975V40.22H865.568V6.7085H954.968V40.22H931.132V191.604H954.968V225.146H865.568Z" fill="white"/>
<path d="M1145.23 225.146L1045.65 70.5151V191.604H1064.56V225.146H986.188V191.604H1004.82V40.3731H986.494V6.7085H1049.06L1148.04 163.453V40.3731H1128.84V6.7085H1207.36V40.3731H1189.04V225.146H1145.23Z" fill="white"/>
<path d="M909.716 505C900.136 505.037 890.6 503.686 881.408 500.987C872.524 498.354 864.033 494.543 856.162 489.653C848.321 484.732 841.161 478.8 834.869 472.009C828.457 465.104 822.959 457.403 818.509 449.096C813.931 440.507 810.383 431.408 807.939 421.987C802.956 402.129 802.956 381.347 807.939 361.489C810.373 352.045 813.921 342.924 818.509 334.318C822.959 326.012 828.457 318.311 834.869 311.405C847.481 297.716 863.562 287.692 881.408 282.397C899.919 277.026 919.575 277.026 938.087 282.397C946.992 285.023 955.504 288.836 963.393 293.731C971.235 298.652 978.394 304.584 984.686 311.375C991.117 318.286 996.646 325.985 1001.14 334.288C1010.63 351.923 1015.6 371.636 1015.6 391.661C1015.6 411.687 1010.63 431.4 1001.14 449.035C996.654 457.352 991.125 465.062 984.686 471.979C978.394 478.769 971.235 484.702 963.393 489.623C955.504 494.518 946.992 498.33 938.087 500.957C928.873 503.659 919.318 505.021 909.716 505ZM909.716 317.716C900.938 317.675 892.283 319.778 884.502 323.842C876.918 327.807 870.241 333.304 864.894 339.985C859.293 347.004 854.978 354.958 852.149 363.48C849.048 372.634 847.495 382.241 847.553 391.906C847.496 401.501 849.049 411.038 852.149 420.119C854.997 428.604 859.31 436.525 864.894 443.521C870.241 450.203 876.918 455.7 884.502 459.665C892.296 463.676 900.951 465.727 909.716 465.638C918.541 465.727 927.256 463.678 935.115 459.665C942.737 455.719 949.448 450.219 954.815 443.521C960.393 436.519 964.669 428.571 967.437 420.057C973.382 401.677 973.382 381.891 967.437 363.511C964.635 354.952 960.307 346.971 954.662 339.954C949.276 333.295 942.582 327.811 934.992 323.842C927.194 319.766 918.516 317.663 909.716 317.716Z" fill="white"/>
<path d="M1211.43 500.987L1111.86 346.387V467.476H1130.77V500.987H1052.4V467.476H1071.02V316.245H1052.7V282.55H1115.26L1214.25 439.325V316.245H1195.04V282.55H1273.57V316.245H1255.25V500.987H1211.43Z" fill="white"/>
<path d="M1421.39 500.987V467.476H1445.17L1432.91 427.654H1358.06L1345.81 467.476H1370.93V500.987H1292.44V467.476H1308.22L1369.71 282.55H1424.18L1484.32 467.476H1499.64V500.987H1421.39ZM1367.56 396.838H1422.98L1395.1 307.546L1367.56 396.838Z" fill="white"/>
<path d="M1553.01 500.987V467.476H1578.04V409.244L1513.15 316.245H1495.11V282.55H1584.47V316.245H1562.88L1599.33 378.735L1637.94 316.245H1613.46V282.55H1702.86V316.245H1687.97L1619 409.796V467.476H1646.42V500.987H1553.01Z" fill="white"/>
<path d="M1834.87 500.987V467.476H1858.68L1846.42 427.654H1771.55L1759.29 467.476H1784.41V500.987H1705.95V467.476H1721.82L1783.31 282.55H1837.75L1897.93 467.476H1913.24V500.987H1834.87ZM1781.08 396.838H1836.5L1808.59 307.546L1781.08 396.838Z" fill="white"/>
<path d="M2171.55 500.987V467.476H2187.05V334.012L2180.04 332.664L2113.34 498.322H2076.39L2008.53 337.075L2001.54 338.484V467.476H2018.36V500.987H1940.76V467.476H1961.74V316.245H1940.76V282.55H2027.58L2096.73 451.7L2160.92 282.55H2249.03V316.245H2228.01V467.476H2248.72V500.987H2171.55Z" fill="white"/>
<path d="M0 278.384V498.935H622.46V278.384H0ZM586.461 463.065H35.9683V314.346H586.461V463.065Z" fill="white"/>
<path d="M1273.57 4.56421V225.115H2249V4.56421H1273.57ZM2213.03 189.245H1309.53V40.5262H2213.03V189.245Z" fill="white"/>
</svg>
